<svg xmlns="http://www.w3.org/2000/svg" viewBox="20 74 158 56" fill="#000000">
<g transform="translate(0,200) scale(0.1,-0.1)">
<path d="M580 1010 l0 -190 25 0 25 0 0 190 0 190 -25 0 -25 0 0 -190z"/>
<path d="M670 1175 c0 -20 5 -25 25 -25 20 0 25 5 25 25 0 20 -5 25 -25 25 -20 0 -25 -5 -25 -25z"/>
<path d="M325 1146 c-83 -36 -123 -136 -90 -222 24 -63 72 -97 143 -102 66 -4 110 18 150 78 23 34 23 35 3 38 -13 2 -33 -9 -55 -31 -40 -41 -85 -52 -129 -33 -46 19 -69 49 -74 99 -10 84 49 145 130 134 40 -6 82 -37 93 -69 3 -11 15 -18 30 -18 22 0 24 3 18 23 -13 41 -47 79 -88 98 -48 22 -89 23 -131 5z"/>
<path d="M855 1146 c-41 -18 -82 -68 -95 -116 -19 -72 21 -160 91 -195 37 -20 103 -19 145 1 l34 16 49 -45 c64 -60 103 -79 178 -85 56 -4 70 -1 126 26 35 18 72 41 82 52 17 19 18 22 2 37 -15 16 -18 15 -39 -4 -35 -33 -108 -63 -156 -63 -58 0 -103 20 -161 75 l-49 46 14 34 c57 138 -85 280 -221 221z m125 -51 c36 -18 60 -62 60 -107 0 -51 -11 -61 -46 -43 -40 21 -63 19 -117 -9 -53 -26 -64 -21 -74 37 -15 94 90 167 177 122z m0 -195 c13 -9 13 -11 0 -20 -20 -13 -100 -13 -100 0 0 23 73 38 100 20z"/>
<path d="M1542 1139 c-28 -14 -51 -36 -67 -64 -80 -136 55 -302 198 -241 33 14 87 62 87 77 0 17 -44 9 -67 -12 -14 -14 -40 -24 -72 -27 -47 -4 -53 -2 -86 31 -62 62 -55 67 105 67 127 0 140 2 140 18 0 40 -22 90 -52 119 -59 57 -116 67 -186 32z m128 -44 c25 -13 60 -60 60 -80 0 -3 -52 -5 -115 -5 -126 0 -133 4 -94 54 37 47 96 59 149 31z"/>
<path d="M1130 1029 c0 -96 3 -116 21 -146 42 -67 140 -86 199 -37 51 43 60 72 60 189 l0 105 -25 0 -25 0 0 -104 c0 -98 -2 -106 -26 -135 -34 -41 -92 -44 -129 -6 -24 23 -25 31 -25 135 l0 110 -25 0 -25 0 0 -111z"/>
<path d="M670 965 l0 -145 25 0 25 0 0 145 0 145 -25 0 -25 0 0 -145z"/>
</g>
</svg>
